<svg xmlns="http://www.w3.org/2000/svg" viewBox="0 0 1600 900">
  <defs>
    <linearGradient id="bangkokSky" x1="0%" y1="0%" x2="0%" y2="100%">
      <stop offset="0%" stop-color="#0ea5e9" />
      <stop offset="50%" stop-color="#1d4ed8" />
      <stop offset="100%" stop-color="#0f172a" />
    </linearGradient>
    <linearGradient id="bangkokGlow" x1="0%" y1="0%" x2="100%" y2="100%">
      <stop offset="0%" stop-color="#2ec4b6" stop-opacity="0.3" />
      <stop offset="50%" stop-color="#f4d35e" stop-opacity="0.25" />
      <stop offset="100%" stop-color="#ee6c4d" stop-opacity="0.3" />
    </linearGradient>
  </defs>
  <rect width="1600" height="900" fill="url(#bangkokSky)" />
  <rect width="1600" height="900" fill="url(#bangkokGlow)" opacity="0.4" />
  <g fill="#0b2240">
    <rect x="0" y="640" width="1600" height="260" opacity="0.75" />
  </g>
  <g fill="#133d73">
    <rect x="120" y="500" width="140" height="340" />
    <rect x="280" y="520" width="130" height="320" />
    <rect x="440" y="470" width="150" height="370" />
    <rect x="620" y="520" width="120" height="320" />
    <rect x="780" y="540" width="140" height="300" />
    <rect x="960" y="500" width="150" height="340" />
    <rect x="1160" y="530" width="130" height="310" />
    <rect x="1340" y="510" width="140" height="330" />
  </g>
  <g fill="#1c4f7d">
    <rect x="160" y="420" width="80" height="420" />
    <rect x="320" y="440" width="80" height="400" />
    <rect x="500" y="420" width="80" height="420" />
    <rect x="660" y="460" width="70" height="380" />
    <rect x="820" y="430" width="90" height="410" />
    <rect x="1000" y="420" width="80" height="420" />
    <rect x="1180" y="450" width="80" height="390" />
    <rect x="1370" y="440" width="90" height="400" />
  </g>
  <g fill="#fde68a" opacity="0.8">
    <polygon points="680,280 720,340 640,340" />
    <rect x="666" y="340" width="28" height="260" />
    <rect x="672" y="600" width="16" height="120" />
    <rect x="1020" y="360" width="20" height="200" />
    <rect x="1036" y="560" width="16" height="80" />
  </g>
  <g fill="#fbbf24" opacity="0.5">
    <rect x="190" y="580" width="12" height="60" />
    <rect x="230" y="600" width="12" height="50" />
    <rect x="360" y="580" width="12" height="60" />
    <rect x="400" y="620" width="12" height="40" />
    <rect x="580" y="600" width="12" height="50" />
    <rect x="620" y="570" width="12" height="70" />
    <rect x="900" y="610" width="12" height="40" />
    <rect x="940" y="580" width="12" height="60" />
    <rect x="1220" y="590" width="12" height="60" />
    <rect x="1260" y="620" width="12" height="40" />
    <rect x="1430" y="570" width="12" height="70" />
    <rect x="1470" y="600" width="12" height="50" />
  </g>
</svg>
