<svg xmlns="http://www.w3.org/2000/svg" viewBox="0 0 1600 900">
  <defs>
    <linearGradient id="lisbonSky" x1="0%" y1="0%" x2="0%" y2="100%">
      <stop offset="0%" stop-color="#0d9488" />
      <stop offset="70%" stop-color="#0d3b66" />
      <stop offset="100%" stop-color="#082f49" />
    </linearGradient>
    <linearGradient id="lisbonGlow" x1="0%" y1="0%" x2="100%" y2="0%">
      <stop offset="0%" stop-color="#f4d35e" stop-opacity="0.25" />
      <stop offset="50%" stop-color="#2ec4b6" stop-opacity="0.2" />
      <stop offset="100%" stop-color="#ee6c4d" stop-opacity="0.3" />
    </linearGradient>
  </defs>
  <rect width="1600" height="900" fill="url(#lisbonSky)" />
  <rect width="1600" height="900" fill="url(#lisbonGlow)" opacity="0.45" />
  <g fill="#0b2742">
    <rect x="0" y="650" width="1600" height="250" opacity="0.7" />
  </g>
  <g fill="#144a74">
    <rect x="140" y="520" width="150" height="330" />
    <rect x="340" y="540" width="120" height="310" />
    <rect x="520" y="500" width="140" height="350" />
    <rect x="720" y="510" width="120" height="340" />
    <rect x="940" y="520" width="150" height="330" />
    <rect x="1140" y="500" width="120" height="350" />
    <rect x="1340" y="540" width="140" height="310" />
  </g>
  <g fill="#1f5a86">
    <rect x="200" y="420" width="80" height="430" />
    <rect x="360" y="450" width="80" height="400" />
    <rect x="560" y="420" width="90" height="430" />
    <rect x="740" y="440" width="80" height="410" />
    <rect x="960" y="430" width="100" height="420" />
    <rect x="1160" y="430" width="90" height="420" />
    <rect x="1360" y="460" width="90" height="390" />
  </g>
  <g fill="#fde68a" opacity="0.75">
    <rect x="580" y="440" width="24" height="120" />
    <rect x="966" y="320" width="16" height="130" />
    <rect x="1176" y="360" width="18" height="120" />
    <rect x="760" y="470" width="20" height="110" />
  </g>
  <g fill="#fbbf24" opacity="0.5">
    <rect x="220" y="570" width="12" height="70" />
    <rect x="260" y="590" width="12" height="60" />
    <rect x="380" y="580" width="12" height="70" />
    <rect x="420" y="600" width="12" height="50" />
    <rect x="980" y="580" width="12" height="70" />
    <rect x="1015" y="610" width="12" height="50" />
    <rect x="1380" y="590" width="12" height="60" />
    <rect x="1410" y="570" width="12" height="70" />
  </g>
  <g fill="#f4d35e" opacity="0.6">
    <rect x="750" y="620" width="400" height="30" />
    <rect x="240" y="640" width="260" height="20" />
  </g>
</svg>
