<svg xmlns="http://www.w3.org/2000/svg" viewBox="0 0 1600 900">
  <defs>
    <linearGradient id="nySky" x1="0%" y1="0%" x2="0%" y2="100%">
      <stop offset="0%" stop-color="#1e293b" />
      <stop offset="50%" stop-color="#0f172a" />
      <stop offset="100%" stop-color="#020617" />
    </linearGradient>
    <linearGradient id="nyGlow" x1="0%" y1="0%" x2="100%" y2="0%">
      <stop offset="0%" stop-color="#2ec4b6" stop-opacity="0.3" />
      <stop offset="50%" stop-color="#f4d35e" stop-opacity="0.4" />
      <stop offset="100%" stop-color="#ee6c4d" stop-opacity="0.3" />
    </linearGradient>
  </defs>
  <rect width="1600" height="900" fill="url(#nySky)" />
  <rect width="1600" height="900" fill="url(#nyGlow)" opacity="0.4" />
  <g fill="#0a2340">
    <rect x="0" y="640" width="1600" height="260" opacity="0.75" />
  </g>
  <g fill="#1b3561">
    <rect x="100" y="520" width="130" height="320" />
    <rect x="240" y="490" width="150" height="350" />
    <rect x="420" y="530" width="110" height="310" />
    <rect x="560" y="500" width="140" height="340" />
    <rect x="760" y="470" width="150" height="370" />
    <rect x="960" y="520" width="140" height="320" />
    <rect x="1160" y="510" width="140" height="330" />
    <rect x="1360" y="540" width="130" height="300" />
  </g>
  <g fill="#254474">
    <rect x="140" y="440" width="60" height="380" />
    <rect x="280" y="420" width="70" height="400" />
    <rect x="460" y="450" width="70" height="370" />
    <rect x="620" y="430" width="80" height="390" />
    <rect x="800" y="420" width="90" height="400" />
    <rect x="1000" y="440" width="80" height="380" />
    <rect x="1200" y="430" width="80" height="390" />
    <rect x="1380" y="460" width="70" height="360" />
  </g>
  <g fill="#fde68a" opacity="0.85">
    <rect x="825" y="280" width="40" height="240" />
    <rect x="806" y="240" width="78" height="40" />
    <rect x="835" y="180" width="20" height="60" />
    <rect x="834" y="520" width="32" height="120" />
    <rect x="632" y="520" width="16" height="80" />
    <rect x="1018" y="520" width="16" height="90" />
  </g>
  <g fill="#fbbf24" opacity="0.55">
    <rect x="170" y="580" width="12" height="60" />
    <rect x="210" y="600" width="12" height="50" />
    <rect x="350" y="570" width="12" height="70" />
    <rect x="390" y="600" width="12" height="50" />
    <rect x="540" y="590" width="12" height="60" />
    <rect x="700" y="610" width="12" height="40" />
    <rect x="940" y="590" width="12" height="60" />
    <rect x="980" y="620" width="12" height="40" />
    <rect x="1180" y="600" width="12" height="50" />
    <rect x="1220" y="570" width="12" height="70" />
    <rect x="1410" y="600" width="12" height="50" />
    <rect x="1450" y="580" width="12" height="60" />
  </g>
</svg>
