<svg xmlns="http://www.w3.org/2000/svg" viewBox="0 0 1600 900">
  <defs>
    <linearGradient id="parisSky" x1="0%" y1="0%" x2="0%" y2="100%">
      <stop offset="0%" stop-color="#1e3a8a" />
      <stop offset="60%" stop-color="#0d3b66" />
      <stop offset="100%" stop-color="#020617" />
    </linearGradient>
    <linearGradient id="parisGlow" x1="0%" y1="0%" x2="100%" y2="0%">
      <stop offset="0%" stop-color="#f4d35e" stop-opacity="0.25" />
      <stop offset="50%" stop-color="#ee6c4d" stop-opacity="0.2" />
      <stop offset="100%" stop-color="#2ec4b6" stop-opacity="0.25" />
    </linearGradient>
  </defs>
  <rect width="1600" height="900" fill="url(#parisSky)" />
  <rect width="1600" height="900" fill="url(#parisGlow)" opacity="0.35" />
  <g fill="#0f172a">
    <rect x="0" y="640" width="1600" height="260" opacity="0.65" />
  </g>
  <g fill="#13294b">
    <rect x="160" y="520" width="120" height="320" />
    <rect x="320" y="480" width="140" height="360" />
    <rect x="520" y="540" width="110" height="300" />
    <rect x="720" y="500" width="130" height="340" />
    <rect x="980" y="530" width="150" height="310" />
    <rect x="1220" y="560" width="170" height="280" />
  </g>
  <g fill="#1f3d6d">
    <rect x="200" y="400" width="70" height="420" />
    <rect x="380" y="430" width="90" height="390" />
    <rect x="580" y="460" width="80" height="360" />
    <rect x="760" y="370" width="90" height="450" />
    <rect x="1020" y="440" width="110" height="380" />
    <rect x="1310" y="470" width="120" height="350" />
  </g>
  <g fill="#fef3c7">
    <rect x="785" y="180" width="40" height="260" />
    <polygon points="805,120 845,180 765,180" />
    <rect x="770" y="440" width="70" height="360" />
    <rect x="795" y="410" width="20" height="30" />
  </g>
  <g fill="#fde68a" opacity="0.7">
    <rect x="360" y="520" width="12" height="60" />
    <rect x="390" y="560" width="12" height="40" />
    <rect x="600" y="560" width="12" height="50" />
    <rect x="630" y="510" width="12" height="60" />
    <rect x="1040" y="560" width="12" height="60" />
    <rect x="1070" y="520" width="12" height="90" />
    <rect x="1320" y="540" width="12" height="70" />
    <rect x="1360" y="580" width="12" height="50" />
  </g>
</svg>
