<svg xmlns="http://www.w3.org/2000/svg" viewBox="0 0 1600 900">
  <defs>
    <linearGradient id="tokyoSky" x1="0%" y1="0%" x2="0%" y2="100%">
      <stop offset="0%" stop-color="#0ea5e9" />
      <stop offset="50%" stop-color="#1e40af" />
      <stop offset="100%" stop-color="#0f172a" />
    </linearGradient>
    <linearGradient id="tokyoGlow" x1="0%" y1="0%" x2="100%" y2="0%">
      <stop offset="0%" stop-color="#ee6c4d" stop-opacity="0.35" />
      <stop offset="50%" stop-color="#f4d35e" stop-opacity="0.3" />
      <stop offset="100%" stop-color="#2ec4b6" stop-opacity="0.3" />
    </linearGradient>
  </defs>
  <rect width="1600" height="900" fill="url(#tokyoSky)" />
  <rect width="1600" height="900" fill="url(#tokyoGlow)" opacity="0.45" />
  <g fill="#0a2642">
    <rect x="0" y="640" width="1600" height="260" opacity="0.75" />
  </g>
  <g fill="#173d6b">
    <rect x="120" y="520" width="130" height="320" />
    <rect x="280" y="500" width="150" height="340" />
    <rect x="460" y="540" width="120" height="300" />
    <rect x="620" y="510" width="140" height="330" />
    <rect x="800" y="520" width="140" height="320" />
    <rect x="980" y="510" width="150" height="330" />
    <rect x="1180" y="520" width="140" height="320" />
    <rect x="1360" y="540" width="130" height="300" />
  </g>
  <g fill="#214c7d">
    <rect x="160" y="440" width="80" height="380" />
    <rect x="320" y="430" width="80" height="390" />
    <rect x="500" y="450" width="80" height="370" />
    <rect x="660" y="420" width="90" height="400" />
    <rect x="840" y="440" width="80" height="380" />
    <rect x="1020" y="430" width="90" height="390" />
    <rect x="1200" y="440" width="80" height="380" />
    <rect x="1380" y="460" width="70" height="360" />
  </g>
  <g fill="#fde68a" opacity="0.85">
    <polygon points="760,300 800,400 720,400" />
    <rect x="756" y="400" width="24" height="320" />
    <rect x="768" y="720" width="16" height="80" />
    <rect x="980" y="360" width="18" height="180" />
    <rect x="996" y="560" width="16" height="120" />
  </g>
  <g fill="#fbbf24" opacity="0.5">
    <rect x="200" y="580" width="12" height="60" />
    <rect x="240" y="610" width="12" height="40" />
    <rect x="380" y="600" width="12" height="50" />
    <rect x="420" y="570" width="12" height="70" />
    <rect x="560" y="620" width="12" height="40" />
    <rect x="600" y="600" width="12" height="50" />
    <rect x="900" y="600" width="12" height="50" />
    <rect x="940" y="630" width="12" height="40" />
    <rect x="1120" y="590" width="12" height="60" />
    <rect x="1160" y="620" width="12" height="40" />
    <rect x="1420" y="600" width="12" height="50" />
    <rect x="1460" y="580" width="12" height="60" />
  </g>
</svg>
